<?xml version="1.0" standalone="no"?>
<!DOCTYPE svg PUBLIC "-//W3C//DTD SVG 20010904//EN"
 "http://www.w3.org/TR/2001/REC-SVG-20010904/DTD/svg10.dtd">
<svg version="1.0" xmlns="http://www.w3.org/2000/svg"
 width="9751.000000pt" height="9052.000000pt" viewBox="0 0 9751.000000 9052.000000"
 preserveAspectRatio="xMidYMid meet">

<g transform="translate(0.000000,9052.000000) scale(0.100000,-0.100000)"
fill="#000000" stroke="none">
<path d="M66540 75553 c-377 -21 -676 -102 -1150 -313 -343 -153 -448 -188
-616 -211 -105 -14 -203 -3 -503 52 -317 59 -467 79 -656 85 -336 13 -607 -40
-883 -171 -467 -223 -801 -612 -977 -1138 -86 -256 -123 -471 -132 -757 -11
-379 25 -580 174 -955 179 -453 367 -732 555 -824 101 -50 170 -51 399 -7
1103 211 1911 152 2397 -176 76 -51 164 -135 295 -281 200 -221 463 -321 882
-334 211 -7 373 5 777 53 714 85 858 52 925 -213 14 -55 17 -112 17 -308 -1
-302 -4 -332 -139 -1365 -18 -140 -32 -256 -31 -257 2 -2 762 13 1049 21 l177
5 0 -47 c1 -47 1 -47 62 -82 161 -92 292 -316 339 -580 22 -121 17 -374 -9
-497 -55 -255 -153 -449 -343 -677 -120 -144 -327 -321 -436 -374 l-31 -15 -7
-131 c-10 -200 28 -783 53 -808 4 -4 97 118 208 270 1177 1621 2001 3022 2238
3804 82 270 79 243 84 913 4 607 -5 916 -34 1254 -55 639 -172 1095 -350 1362
-26 39 -117 141 -203 227 -229 230 -304 343 -541 813 -82 163 -176 336 -209
386 -153 229 -332 329 -681 380 -129 19 -532 22 -678 6 l-84 -9 -151 151
c-242 241 -442 387 -717 524 -353 176 -688 246 -1070 224z"/>
<path d="M10874 73673 c3 -10 1576 -5344 3496 -11853 1920 -6509 3495 -11850
3501 -11867 l11 -33 584 0 584 0 0 25 c0 49 -31 442 -51 650 -26 277 -52 494
-90 751 -25 176 -29 219 -19 253 13 50 63 109 107 127 39 17 121 18 160 3 34
-13 80 -55 99 -91 42 -80 148 -958 186 -1527 l12 -191 4543 0 4543 0 0 -3085
0 -3085 -2120 0 -2120 0 0 -445 0 -445 413 0 c226 0 1119 5 1982 10 1357 9
5776 35 11765 70 927 5 2389 12 3250 15 1856 7 2282 16 3210 70 1705 99 4127
326 6364 595 181 22 354 40 383 40 122 0 199 -82 191 -205 -3 -46 -11 -73 -30
-103 -45 -67 -77 -76 -413 -116 -2441 -291 -4829 -514 -6560 -611 -955 -53
-1458 -63 -3805 -70 -1009 -3 -2564 -10 -3455 -15 -1426 -9 -6550 -39 -11820
-70 -3785 -22 -5437 -30 -8075 -40 -1510 -5 -2833 -12 -2940 -15 -315 -8 -631
-41 -965 -100 -2419 -429 -4704 -2135 -6579 -4913 -347 -513 -699 -1096 -979
-1619 l-65 -123 4204 0 4204 0 0 -5940 0 -5940 -4209 0 -4210 0 44 -123 c442
-1255 1000 -2359 1654 -3276 57 -79 107 -155 112 -168 13 -36 11 -119 -5 -156
-30 -74 -127 -125 -212 -112 -84 12 -119 52 -363 410 -614 904 -1180 2061
-1576 3228 l-67 197 -1172 0 -1171 0 2 -112 c66 -3179 797 -6250 2117 -8885
76 -154 86 -179 86 -227 0 -66 -12 -102 -48 -139 -51 -54 -124 -75 -194 -57
-89 24 -99 38 -263 374 -1048 2139 -1702 4460 -1969 6986 -62 585 -93 1067
-122 1883 l-6 177 -59 0 -59 0 0 -11890 0 -11890 15415 0 15415 0 0 11890 0
11890 -9050 0 -9050 0 0 5940 0 5940 15366 0 15366 0 -14 -22 c-8 -13 -63
-103 -121 -200 -1108 -1845 -2515 -4943 -4118 -9073 l-160 -410 -78 -76 c-44
-41 -93 -97 -110 -125 -66 -102 -86 -231 -56 -346 l14 -56 -39 -100 c-68 -176
-543 -1444 -708 -1892 -677 -1838 -1369 -3793 -2044 -5775 -275 -809 -728
-2173 -728 -2194 0 -20 219 -234 385 -376 763 -653 1637 -1011 2745 -1124 201
-21 649 -46 708 -39 l34 3 2843 5550 2842 5550 1023 3 1022 2 -6 -117 c-7
-140 -22 -640 -36 -1208 -91 -3786 -58 -9726 90 -15985 20 -834 50 -2030 60
-2340 5 -173 10 -334 10 -357 l0 -41 123 -52 c368 -156 835 -275 1335 -340
333 -44 919 -62 1267 -41 608 38 1141 134 1622 293 181 59 182 60 188 91 4 28
1875 20071 1875 20090 0 4 1206 7 2680 7 l2680 0 0 -8993 0 -8994 -3335 -2297
-3336 -2297 -60 55 c-321 290 -795 402 -1243 294 -48 -12 -90 -27 -93 -34 -2
-7 39 -439 91 -961 53 -522 96 -987 96 -1034 0 -158 -50 -279 -161 -391 -47
-48 -88 -78 -140 -103 l-73 -35 65 -29 c173 -78 351 -114 559 -114 160 0 279
17 411 59 265 84 518 262 685 483 79 105 185 315 219 436 78 271 72 565 -15
825 -21 63 -35 118 -32 121 4 4 1518 1046 3364 2318 l3357 2311 366 0 366 0
2044 -1398 2044 -1397 3 -1685 3 -1685 27 -69 c99 -255 349 -391 607 -331 172
41 306 163 370 339 l26 71 5 1322 5 1321 810 -554 c446 -305 816 -558 823
-563 11 -6 8 -25 -17 -95 -55 -155 -74 -272 -75 -451 0 -181 17 -296 65 -440
117 -352 363 -634 697 -800 108 -54 206 -87 342 -116 144 -30 380 -30 525 -1
369 74 673 274 876 576 107 159 167 301 210 497 30 136 33 396 6 532 -84 419
-355 780 -724 966 -317 160 -679 194 -1021 95 -169 -49 -385 -168 -515 -284
l-58 -52 -82 56 c-45 31 -482 330 -972 665 l-890 608 -3 10626 -2 10627 2557
3 c2540 3 2559 3 2668 24 337 64 594 157 847 308 647 385 1074 1034 1173 1780
30 225 30 1011 1 2515 -45 2306 -106 5746 -106 5948 l0 122 -1390 0 -1390 0 0
-667 c0 -727 -14 -2034 -30 -2888 -43 -2242 -119 -3465 -231 -3687 -39 -76
-120 -93 -417 -85 -147 3 -283 14 -422 32 -604 78 -1533 263 -2670 532 -223
53 -445 106 -495 117 l-90 22 -5 3504 c-4 2916 -7 3512 -19 3545 -18 55 -58
133 -87 172 l-24 32 0 3140 0 3141 -2689 0 -2690 0 5 33 c2 17 23 199 45 402
430 3953 1461 8935 2939 14210 294 1049 657 2271 901 3037 38 119 69 223 69
231 0 9 -22 18 -65 26 -57 10 -90 8 -263 -14 -108 -14 -208 -28 -222 -30 -19
-4 -68 21 -212 109 -165 101 -195 116 -264 130 -43 9 -81 13 -85 9 -26 -27
-596 -1604 -939 -2598 -1844 -5349 -3205 -10626 -3785 -14670 -19 -132 -37
-255 -41 -273 l-5 -34 -62 59 c-152 144 -218 175 -699 327 -1830 578 -3408
1009 -4288 1169 -142 26 -186 38 -188 50 -5 25 161 758 274 1207 106 425 227
876 338 1263 35 119 62 217 61 217 -1 0 -122 -58 -271 -129 -447 -213 -1108
-509 -1546 -692 l-178 -74 0 -872 0 -873 -10735 0 -10735 0 0 2565 0 2565
8196 0 8196 0 -7 28 c-3 15 -1580 5362 -3503 11882 l-3497 11855 -15478 3
c-14738 2 -15478 1 -15473 -15z m48076 -38019 c0 -3 -42 -154 -94 -337 -125
-440 -184 -657 -255 -938 l-60 -234 187 -48 c103 -26 547 -143 987 -258 1115
-294 1800 -465 2413 -604 l22 -5 0 1215 0 1215 2355 0 2355 0 0 -3181 c0
-3024 -1 -3180 -17 -3175 -10 2 -108 28 -218 56 -1208 310 -2952 795 -4156
1156 l-296 88 -6 196 c-4 107 -10 666 -14 1241 l-6 1045 -236 53 c-355 80
-1358 333 -2256 569 -440 116 -877 231 -972 255 l-171 45 -18 -77 c-9 -42 -24
-118 -33 -169 -9 -51 -21 -94 -26 -95 -6 -1 -99 101 -207 227 -109 127 -203
233 -210 237 -26 14 -952 234 -1413 335 -2790 614 -4667 674 -5900 187 -358
-141 -559 -277 -860 -578 -1264 -1268 -3164 -4704 -5626 -10173 -1242 -2759
-2812 -6494 -3934 -9357 -64 -165 -121 -304 -125 -308 -4 -5 -36 1 -70 14 -46
16 -60 26 -57 38 17 59 793 2007 1112 2791 3086 7576 5775 13191 7569 15800
681 992 1205 1553 1667 1785 843 425 2055 554 3639 389 904 -94 1963 -288
3280 -600 173 -41 368 -89 434 -105 65 -16 120 -28 122 -26 4 3 -721 850 -961
1123 -77 87 -151 171 -163 186 l-24 28 1121 0 c617 0 1121 -2 1121 -6z m7910
-20960 c0 -6551 -3 -10264 -10 -10262 -5 2 -848 577 -1874 1278 l-1865 1275
-1 8988 0 8987 1875 0 1875 0 0 -10266z"/>
<path d="M62810 70249 c-114 -12 -277 -44 -344 -69 -68 -26 -131 -71 -156
-113 -24 -39 -26 -116 -5 -157 45 -87 233 -161 500 -196 177 -23 681 -15 811
14 149 32 232 80 260 149 72 171 -141 328 -506 373 -98 12 -437 11 -560 -1z"/>
<path d="M86729 70090 c-218 -37 -428 -143 -588 -295 -169 -161 -268 -330
-329 -560 l-27 -100 -3 -2383 -2 -2383 57 6 c32 3 189 10 348 15 991 33 1759
-23 2190 -161 96 -30 177 -75 194 -108 33 -60 -9 -140 -93 -180 -58 -27 -245
-64 -461 -92 -178 -22 -227 -22 -470 2 -159 16 -716 16 -880 1 -130 -13 -303
-37 -339 -48 -17 -6 -18 -14 -12 -98 22 -308 25 -400 17 -488 -10 -90 -13 -99
-105 -283 -52 -104 -124 -239 -161 -299 -79 -131 -81 -118 45 -246 183 -184
415 -298 670 -329 70 -9 868 -11 3090 -9 2768 4 3000 5 3062 21 236 59 393
144 555 300 168 162 271 346 326 582 l21 90 4 2945 c2 2027 0 2982 -8 3064 -6
66 -19 154 -30 196 -101 397 -411 707 -820 821 l-85 24 -3060 1 c-1683 1
-3081 -2 -3106 -6z m3105 -3076 c3 -9 6 -405 6 -880 l0 -864 -78 0 c-47 0 -83
5 -90 12 -13 13 -17 1094 -5 1516 l6 232 78 0 c61 0 78 -3 83 -16z m-2347 -75
c118 -13 241 -48 336 -95 109 -55 220 -172 281 -295 55 -112 72 -176 86 -319
23 -227 -24 -445 -131 -604 -118 -177 -302 -290 -536 -331 -111 -19 -602 -22
-621 -3 -9 9 -12 200 -12 797 0 433 3 803 6 824 l7 37 244 0 c134 0 287 -5
340 -11z m4123 -309 l0 -157 141 -6 c103 -4 144 -9 150 -19 5 -7 9 -43 9 -80
l0 -68 -150 0 -150 0 0 -392 c0 -242 4 -407 11 -430 7 -27 19 -43 42 -54 44
-23 125 -23 177 1 41 19 43 19 56 0 9 -12 14 -44 14 -85 l0 -67 -51 -16 c-64
-21 -169 -22 -235 -2 -55 16 -100 53 -138 113 -52 83 -56 122 -56 544 l0 388
-88 0 c-55 0 -92 4 -100 12 -7 7 -12 42 -12 85 l0 73 100 0 100 0 0 139 c0 99
4 141 13 149 25 20 141 50 155 40 9 -8 12 -54 12 -168z m-2487 -167 c169 -80
269 -262 284 -519 l6 -114 -421 0 -422 0 0 -40 c0 -105 47 -227 108 -282 143
-129 369 -128 570 2 77 49 84 43 80 -72 l-3 -83 -62 -33 c-104 -55 -204 -75
-352 -70 -139 5 -197 21 -286 80 -95 63 -187 213 -220 358 -22 99 -22 282 -1
375 49 206 193 368 376 421 29 9 87 12 160 11 105 -3 121 -6 183 -34z m1618
23 c143 -31 239 -108 309 -249 50 -101 70 -192 70 -319 l0 -98 -420 0 c-393 0
-420 -1 -420 -17 1 -53 31 -176 53 -219 102 -200 387 -238 628 -83 59 38 64
40 76 23 8 -11 13 -47 13 -96 l0 -77 -82 -40 c-112 -54 -222 -75 -352 -68
-121 6 -182 24 -264 76 -102 66 -194 205 -227 344 -26 104 -30 269 -11 367 65
324 332 518 627 456z m1982 -24 c85 -30 149 -83 206 -167 75 -113 111 -243
111 -408 l0 -79 -420 4 -420 3 0 -31 c0 -52 21 -145 44 -198 27 -60 98 -129
164 -158 58 -26 194 -35 273 -19 63 13 168 61 217 98 52 40 62 28 62 -76 l0
-90 -72 -35 c-110 -54 -184 -70 -323 -71 -92 0 -133 4 -175 19 -119 40 -191
96 -262 205 -73 111 -99 206 -106 372 -6 166 10 252 69 369 69 138 210 251
349 280 71 15 217 5 283 -18z"/>
<path d="M87077 66560 c-4 -117 -7 -413 -7 -658 l0 -444 203 5 c228 5 273 13
404 78 157 76 265 219 308 409 38 164 18 398 -46 536 -32 69 -130 164 -209
202 -121 59 -201 74 -436 79 l-211 5 -6 -212z"/>
<path d="M88855 66326 c-69 -17 -110 -41 -160 -90 -43 -43 -97 -144 -110 -203
l-7 -33 274 0 c150 0 297 -3 326 -7 l54 -6 -7 49 c-26 195 -103 284 -260 298
-35 3 -81 0 -110 -8z"/>
<path d="M90555 66316 c-122 -39 -207 -132 -249 -273 l-15 -53 326 0 326 0 -6
59 c-15 139 -82 234 -188 265 -62 19 -139 20 -194 2z"/>
<path d="M92443 66300 c-78 -31 -147 -99 -187 -184 -19 -39 -37 -86 -41 -103
l-7 -33 327 0 327 0 -7 58 c-16 128 -64 210 -150 255 -59 31 -192 34 -262 7z"/>
<path d="M65588 69801 c-80 -26 -128 -83 -128 -153 1 -160 282 -379 720 -561
434 -180 653 -203 737 -77 27 39 31 128 9 182 -39 92 -148 202 -296 298 -148
95 -453 222 -676 281 -126 33 -311 48 -366 30z"/>
<path d="M64530 69688 c-54 -154 -303 -886 -304 -897 -1 -10 19 -18 64 -27 36
-6 66 -11 68 -9 6 5 312 908 312 919 0 11 -90 46 -117 46 -6 0 -16 -15 -23
-32z"/>
<path d="M63205 69092 c-114 -71 -183 -247 -173 -441 7 -121 33 -195 88 -245
34 -30 47 -36 86 -36 55 0 91 18 134 67 86 98 136 309 110 467 -21 129 -75
197 -162 203 -40 3 -61 -1 -83 -15z"/>
<path d="M65489 68670 c-176 -95 -239 -510 -102 -669 43 -50 87 -66 143 -51
138 37 241 311 200 531 -14 73 -55 154 -92 180 -42 30 -104 34 -149 9z"/>
<path d="M64132 68523 c-22 -65 -97 -287 -168 -493 -123 -361 -128 -378 -128
-460 -1 -110 19 -163 85 -225 27 -25 73 -57 102 -69 67 -30 205 -65 283 -73
54 -5 64 -3 83 16 11 11 21 32 21 45 0 46 -28 64 -140 87 -238 48 -313 109
-296 240 4 27 81 268 172 535 91 267 164 487 162 489 -5 4 -107 25 -123 25 -8
0 -28 -44 -53 -117z"/>
<path d="M68153 68301 c-155 -3 -284 -9 -288 -13 -13 -13 -27 -262 -21 -378 7
-147 25 -209 72 -248 37 -31 133 -87 138 -80 219 325 417 555 572 663 38 27
73 52 79 57 9 8 -79 8 -552 -1z"/>
<path d="M68922 62761 c2 -5 84 -155 182 -334 l179 -325 341 -87 c534 -138
1276 -341 1436 -394 274 -91 749 -277 1200 -471 756 -324 1354 -630 1775 -909
454 -301 1422 -1092 2488 -2034 92 -81 167 -142 167 -135 0 7 7 85 15 173 8
88 17 268 21 400 18 677 -88 1259 -323 1765 -62 132 -136 262 -241 420 -163
247 -394 458 -714 651 -895 543 -2426 937 -4478 1153 -746 79 -2061 160 -2048
127z"/>
<path d="M61085 62175 c-958 -216 -1695 -453 -2262 -730 -438 -213 -637 -350
-932 -640 -910 -894 -1686 -2132 -2306 -3680 -356 -888 -661 -1880 -899 -2925
-70 -305 -70 -305 -47 -255 530 1161 1079 2200 1754 3321 956 1590 2079 2923
3282 3896 494 399 1057 765 1550 1005 72 34 123 63 115 62 -8 0 -123 -25 -255
-54z"/>
<path d="M65690 60625 c0 -4 19 -38 42 -77 39 -66 43 -70 72 -65 51 9 208 69
199 77 -4 4 -69 19 -143 34 -74 15 -143 30 -152 32 -10 3 -18 2 -18 -1z"/>
<path d="M72991 53593 c-15 -344 -30 -611 -36 -643 -3 -14 -16 -180 -30 -370
-174 -2386 -509 -4990 -789 -6130 -30 -124 -66 -284 -80 -355 -150 -779 -182
-1729 -95 -2795 19 -240 65 -663 76 -707 l5 -23 1446 0 1445 0 -6 613 c-30
2721 -32 3858 -7 4479 57 1441 202 2751 466 4207 30 167 53 308 52 312 -2 4
-91 60 -198 125 -627 376 -1453 949 -2142 1486 -48 37 -89 68 -91 68 -2 0 -9
-120 -16 -267z"/>
<path d="M0 21512 c0 -18617 2 -21064 15 -21115 57 -219 239 -375 460 -394
243 -20 459 130 542 377 17 53 18 577 21 17667 l2 17613 2301 2 2301 3 73 210
c763 2203 1986 3968 3578 5164 431 323 846 578 1347 825 573 283 1101 478
1745 642 l250 63 -6317 1 -6318 0 0 -21058z"/>
<path d="M10035 41064 c-521 -333 -968 -695 -1435 -1163 -450 -451 -834 -922
-1194 -1466 -127 -192 -310 -485 -302 -485 2 0 43 55 92 123 486 677 989 1272
1554 1838 466 468 826 784 1285 1129 208 156 208 157 0 24z"/>
</g>
</svg>
