<?xml version="1.0" standalone="no"?>
<!DOCTYPE svg PUBLIC "-//W3C//DTD SVG 20010904//EN"
 "http://www.w3.org/TR/2001/REC-SVG-20010904/DTD/svg10.dtd">
<svg version="1.0" xmlns="http://www.w3.org/2000/svg"
 width="11496.000000pt" height="9197.000000pt" viewBox="0 0 11496.000000 9197.000000"
 preserveAspectRatio="xMidYMid meet">

<g transform="translate(0.000000,9197.000000) scale(0.100000,-0.100000)"
fill="#000000" stroke="none">
<path d="M15170 44705 c0 -32744 -2 -36845 -15 -36845 -13 0 -15 -102 -15
-855 l0 -855 263 0 263 0 212 787 c117 434 217 805 222 826 l11 37 19059 0
19060 0 6 -27 c4 -16 105 -392 224 -838 l217 -810 263 -3 263 -2 -6 1282 c-4
706 -7 13409 -7 28231 l0 26947 -3459 0 c-3801 0 -3531 -4 -3717 61 -356 124
-621 412 -714 773 -15 60 -50 314 -50 366 0 7 -2750 11 -8847 13 l-8848 3 -96
21 c-302 67 -526 188 -734 398 -206 207 -332 445 -391 740 -27 135 -25 405 4
542 62 285 188 519 392 723 108 109 236 202 363 267 94 47 281 108 397 130 91
17 508 18 9061 20 l8966 3 18 63 c9 34 48 154 85 267 326 986 851 1903 1550
2705 146 167 568 589 735 735 1212 1056 2678 1710 4248 1894 312 37 441 46
755 53 l282 6 0 4594 0 4593 -20010 0 -20010 0 0 -36845z m6690 34400 c345
-90 599 -382 641 -737 50 -425 -219 -818 -636 -933 -33 -9 -114 -18 -180 -21
-162 -8 -278 15 -419 85 -212 104 -358 271 -438 501 -32 93 -33 99 -33 265 0
151 3 178 24 245 99 319 347 544 666 606 90 17 287 12 375 -11z m6170 15 c274
-44 508 -216 631 -465 66 -135 81 -194 86 -355 5 -154 -7 -232 -56 -355 -100
-250 -319 -441 -586 -511 -97 -26 -332 -26 -425 0 -310 85 -539 314 -621 621
-17 63 -22 108 -22 215 0 154 19 244 78 367 163 345 537 542 915 483z m5090
-850 l0 -860 -360 0 -360 0 -1 438 c0 311 -4 447 -12 472 -33 96 -196 110
-242 20 -13 -25 -15 -96 -15 -480 l0 -450 -365 0 -365 0 0 860 0 860 860 0
860 0 0 -860z m6250 0 l0 -860 -396 0 -397 0 7 48 c53 378 73 820 41 882 -20
39 -63 60 -124 60 -42 0 -55 -5 -84 -33 -43 -40 -44 -50 -51 -327 -5 -181 -20
-375 -44 -565 l-7 -60 -333 -3 -332 -2 0 860 0 860 860 0 860 0 0 -860z m3261
844 c328 -62 588 -308 674 -639 39 -150 26 -368 -32 -514 -64 -164 -189 -318
-332 -412 -230 -151 -523 -180 -792 -80 -188 71 -361 233 -454 424 -69 145
-80 196 -79 382 0 147 3 167 28 245 50 150 117 262 219 362 203 200 486 285
768 232z m6299 -9 c101 -26 256 -106 335 -172 225 -189 339 -475 305 -763 -42
-349 -285 -634 -626 -732 -67 -19 -103 -23 -229 -22 -178 0 -232 12 -380 84
-210 101 -353 265 -434 493 l-36 102 0 175 c0 173 1 176 34 272 104 302 345
512 656 574 89 17 287 12 375 -11z m-22950 -835 l0 -280 -1210 0 -1210 0 0
280 0 280 1210 0 1210 0 0 -280z m10620 0 l0 -280 -1215 0 -1215 0 0 280 0
280 1215 0 1215 0 0 -280z m10210 0 l0 -280 -1215 0 -1215 0 0 280 0 280 1215
0 1215 0 0 -280z m-24970 -5495 l0 -525 -525 0 -525 0 0 525 0 525 525 0 525
0 0 -525z m1830 0 l0 -525 -530 0 -530 0 0 525 0 525 530 0 530 0 0 -525z
m1820 0 l0 -525 -125 0 c-81 0 -125 -4 -125 -11 0 -22 94 -240 151 -349 239
-456 597 -820 1007 -1025 400 -199 814 -235 1205 -105 463 155 867 531 1208
1125 57 99 179 344 179 359 0 3 -40 6 -90 6 l-90 0 0 525 0 525 525 0 525 0 0
-525 0 -525 -284 0 -283 0 -43 -97 c-417 -954 -1034 -1551 -1760 -1703 -633
-132 -1308 98 -1835 625 -294 294 -530 670 -670 1068 l-38 107 -253 0 -254 0
0 525 0 525 525 0 525 0 0 -525z m6200 2 l0 -523 -36 -130 c-20 -71 -40 -135
-44 -143 -6 -11 -45 22 -152 127 l-145 142 -336 0 -337 0 0 525 0 525 525 0
525 0 0 -523z m1830 60 l0 -463 135 -123 c333 -306 682 -547 1084 -748 91 -46
169 -84 175 -87 6 -2 -35 -50 -92 -107 l-102 -104 -123 62 c-449 228 -849 512
-1198 851 l-136 132 -397 0 -396 0 0 525 0 525 525 0 525 0 0 -463z m4372 132
l3 -332 110 -59 c185 -101 781 -400 950 -477 247 -113 492 -217 690 -292 l179
-69 106 71 c149 102 286 210 435 347 l130 118 3 512 2 512 525 0 525 0 0 -525
0 -525 -357 0 -356 0 -133 -138 c-149 -156 -276 -269 -441 -395 l-113 -85 150
-41 c433 -121 812 -179 1225 -188 540 -12 991 59 1540 242 532 177 1081 451
1648 821 l157 103 0 366 0 365 525 0 525 0 0 -525 0 -525 -516 0 -517 0 -169
-105 c-1672 -1043 -3050 -1257 -4722 -736 l-129 41 -96 -55 c-1170 -661 -2752
-861 -4112 -520 -248 63 -684 207 -677 225 2 4 46 53 99 109 l97 101 98 -36
c327 -118 750 -215 1129 -258 855 -99 1804 17 2580 312 204 78 535 227 535
241 0 3 -78 37 -173 75 -354 141 -743 321 -1184 546 l-273 140 0 -40 0 -40
-525 0 -525 0 0 525 0 525 525 0 525 0 2 -331z m1828 -194 l0 -525 -525 0
-525 0 0 525 0 525 525 0 525 0 0 -525z m8030 0 l0 -525 -409 0 -410 0 -288
-194 c-662 -444 -1216 -767 -1903 -1110 -1777 -885 -3551 -1360 -5405 -1447
-317 -15 -1071 -6 -1365 15 -1271 94 -2426 354 -3572 805 l-157 62 106 99 c58
55 110 100 115 100 6 0 88 -30 182 -66 928 -357 2005 -607 3036 -704 424 -40
556 -45 1125 -45 584 1 756 8 1212 55 2183 225 4313 1028 6406 2417 l277 184
0 439 0 440 525 0 525 0 0 -525z m1830 0 l0 -525 -525 0 -525 0 0 525 0 525
525 0 525 0 0 -525z m-17330 -985 c472 -351 1154 -745 1752 -1011 93 -41 168
-77 168 -81 0 -12 -201 -188 -215 -188 -43 0 -655 306 -959 480 -405 231 -822
510 -1143 767 -12 10 -12 21 7 85 12 40 30 103 41 140 l20 67 102 -83 c56 -45
158 -125 227 -176z m-9720 -6580 l0 -860 -860 0 -860 0 0 860 0 860 860 0 860
0 0 -860z m2348 623 l-3 -238 -225 -57 c-199 -51 -653 -156 -812 -188 -122
-24 -168 -144 -89 -229 46 -49 79 -49 306 -2 195 41 784 177 811 188 12 4 14
-72 14 -476 l0 -481 -860 0 -860 0 0 860 0 860 860 0 860 0 -2 -237z m1347
176 c-164 -58 -694 -229 -708 -229 -4 0 -7 65 -7 145 l0 145 443 -1 442 0
-170 -60z m1005 2 c0 -39 -1 -39 -157 -153 -193 -140 -459 -323 -656 -452
-155 -102 -177 -126 -177 -191 0 -77 59 -135 137 -135 38 0 67 17 280 158 131
87 308 208 394 269 86 60 161 113 168 117 8 5 11 -157 11 -633 l0 -641 -860 0
-860 0 0 565 c0 444 3 566 13 570 6 2 113 33 237 70 301 89 919 294 1215 404
132 49 243 90 248 90 4 1 7 -16 7 -38z m-5848 -6981 c120 -37 207 -113 262
-229 29 -62 31 -73 31 -181 0 -108 -2 -119 -31 -181 -55 -116 -142 -192 -262
-229 -250 -77 -506 79 -552 338 -15 83 -2 178 35 260 46 101 173 205 281 231
68 16 168 12 236 -9z m2170 0 c35 -11 88 -37 118 -57 237 -166 239 -534 4
-702 -82 -59 -141 -76 -259 -76 -94 0 -104 2 -175 36 -189 92 -289 299 -236
494 65 243 309 379 548 305z m2137 9 c230 -53 378 -297 317 -525 -33 -126
-117 -226 -236 -283 -71 -34 -81 -36 -175 -36 -118 0 -177 17 -259 76 -235
168 -233 536 4 702 97 67 233 93 349 66z m2245 -27 c268 -125 337 -473 137
-685 -115 -122 -284 -166 -443 -117 -120 37 -207 113 -262 229 -29 62 -31 73
-31 181 0 108 2 119 31 181 54 114 133 185 253 226 55 20 81 23 157 20 77 -3
103 -9 158 -35z m-5394 -6942 l0 -860 -120 0 -119 0 -77 107 c-155 220 -292
474 -379 708 -56 150 -79 175 -160 175 -49 0 -60 -4 -93 -34 -35 -32 -37 -38
-37 -93 1 -124 185 -519 367 -790 l49 -73 -576 0 -575 0 0 860 0 860 860 0
860 0 0 -860z m3520 81 l0 -779 83 -75 c323 -292 775 -629 1187 -884 1273
-790 2804 -1280 4475 -1432 450 -41 576 -46 1200 -46 620 1 797 8 1255 50
2131 198 4248 861 5753 1803 209 130 471 314 646 454 l130 103 1 793 0 792
865 0 865 0 0 -860 0 -860 -735 0 -736 0 -127 -104 c-806 -656 -1902 -1229
-3172 -1657 -2170 -733 -4516 -965 -6635 -658 -2028 294 -3843 1111 -5191
2336 l-92 83 -746 0 -746 0 0 860 0 860 860 0 860 0 0 -779z m12940 -81 l0
-860 -411 0 c-374 0 -411 1 -405 16 10 27 45 231 61 364 9 69 19 213 22 320 5
170 4 199 -11 227 -21 42 -63 63 -125 63 -59 0 -104 -31 -119 -83 -6 -18 -13
-111 -16 -207 -6 -200 -25 -366 -64 -560 l-27 -135 -312 -3 -313 -2 0 860 0
860 860 0 860 0 0 -860z m7030 0 l0 -860 -860 0 -860 0 0 860 0 860 860 0 860
0 0 -860z m3520 0 l0 -860 -860 0 -860 0 0 860 0 860 860 0 860 0 0 -860z
m-19975 -6195 c123 -32 221 -115 279 -235 29 -61 31 -72 31 -180 0 -109 -2
-119 -32 -182 -44 -93 -110 -160 -199 -204 -127 -63 -290 -58 -410 12 -60 35
-141 125 -170 189 -153 335 145 692 501 600z m2237 -27 c166 -79 256 -231 246
-412 -9 -140 -70 -253 -178 -329 -191 -133 -465 -88 -599 99 -59 82 -76 141
-76 259 0 94 2 104 36 175 41 85 105 154 181 195 79 43 133 55 230 51 75 -3
98 -8 160 -38z m2080 31 c218 -46 368 -268 330 -489 -28 -165 -140 -294 -294
-341 -101 -31 -221 -24 -312 19 -88 41 -167 121 -209 209 -30 64 -32 74 -32
183 0 110 2 118 33 183 90 184 283 278 484 236z m2181 -4 c84 -22 134 -51 197
-114 212 -212 147 -564 -127 -694 -64 -30 -75 -32 -179 -32 -107 0 -112 1
-186 38 -89 44 -161 116 -205 205 -26 53 -28 66 -28 177 0 119 0 122 37 197
91 183 293 275 491 223z m-14133 -6068 c238 -66 408 -193 532 -399 102 -167
142 -399 104 -600 -16 -83 -16 -90 4 -180 262 -1185 830 -2271 1714 -3278 145
-166 496 -520 676 -683 666 -604 1431 -1126 2243 -1531 l157 -78 39 34 c209
178 545 237 819 144 450 -153 688 -640 536 -1095 -42 -126 -99 -216 -204 -322
-209 -211 -472 -295 -766 -244 -179 32 -336 117 -466 253 -169 177 -248 393
-235 642 6 112 23 188 63 284 14 34 28 68 30 76 4 11 -37 36 -153 94 -1174
584 -2306 1473 -3118 2451 -754 907 -1269 1895 -1545 2963 l-11 43 -60 -55
c-187 -173 -456 -248 -724 -201 -177 31 -317 105 -451 239 -181 181 -264 396
-251 651 12 223 95 410 249 563 131 129 259 199 438 237 83 18 303 13 380 -8z
m6207 7 c169 -35 301 -104 424 -221 150 -143 226 -298 266 -538 l8 -49 175
-93 c941 -498 2174 -966 3300 -1253 69 -18 130 -37 137 -44 6 -6 34 -63 61
-126 27 -63 61 -139 76 -167 14 -29 23 -53 18 -53 -17 0 -336 81 -534 135
-1012 278 -1954 644 -2941 1142 l-336 170 -12 -36 c-48 -147 -170 -311 -306
-407 -76 -55 -206 -116 -298 -140 -107 -28 -324 -26 -428 4 -325 93 -557 340
-622 661 -23 112 -16 304 14 409 79 271 290 491 559 581 125 43 306 53 439 25z
m4973 -844 l0 -860 -271 2 -272 3 -14 40 c-59 166 -141 560 -162 772 -12 132
-48 177 -141 176 -86 -1 -130 -51 -130 -145 0 -152 100 -686 156 -831 6 -16
-29 -17 -440 -17 l-446 0 0 860 0 860 860 0 860 0 0 -860z m6250 0 l0 -860
-461 0 -461 0 5 23 c2 12 27 110 55 217 65 251 132 567 132 622 0 90 -81 152
-168 129 -61 -17 -86 -54 -106 -157 -41 -207 -132 -582 -187 -766 l-20 -68
-254 0 -255 0 0 860 0 860 860 0 860 0 0 -860z m3238 844 c325 -67 576 -305
663 -629 31 -113 30 -316 0 -430 -65 -244 -231 -446 -456 -555 -146 -70 -211
-85 -385 -84 -128 1 -155 4 -235 28 -163 50 -313 146 -412 265 -30 36 -59 65
-65 63 -5 -1 -49 -29 -96 -61 -738 -494 -1744 -918 -2802 -1181 -180 -45 -741
-163 -746 -157 -1 1 24 63 54 137 l57 135 220 44 c1127 223 2175 646 3042
1227 87 58 159 107 160 108 1 0 -5 33 -14 71 -10 50 -13 109 -10 210 3 125 7
150 36 235 89 264 286 461 548 549 127 43 306 53 441 25z m6297 -9 c93 -25
253 -108 326 -168 125 -104 216 -237 271 -397 31 -92 32 -100 33 -260 0 -196
-11 -246 -85 -395 -108 -218 -288 -369 -525 -441 -80 -24 -107 -27 -235 -28
-168 -1 -236 13 -369 75 -46 22 -85 38 -87 37 -1 -2 -29 -61 -62 -133 -276
-604 -660 -1257 -1072 -1825 -659 -907 -1518 -1765 -2500 -2496 -256 -190
-413 -300 -710 -496 -236 -156 -660 -421 -695 -434 -10 -4 -6 -20 16 -67 53
-113 71 -207 71 -357 0 -162 -19 -249 -87 -385 -311 -623 -1209 -632 -1529
-15 -78 150 -91 209 -91 405 0 166 1 172 33 265 77 222 221 390 422 495 141
72 218 90 395 90 127 0 162 -4 230 -23 109 -32 209 -81 292 -145 l69 -54 176
106 c1874 1131 3251 2460 4206 4057 205 343 399 712 556 1056 l67 147 -36 46
c-49 65 -111 196 -136 291 -30 113 -31 316 0 429 86 321 332 557 656 629 89
20 312 15 400 -9z m-22835 -835 l0 -280 -1215 0 -1215 0 0 280 0 280 1215 0
1215 0 0 -280z m10530 0 l0 -280 -1215 0 -1215 0 0 280 0 280 1215 0 1215 0 0
-280z m10170 0 l0 -280 -1210 0 -1210 0 0 280 0 280 1210 0 1210 0 0 -280z
m-13720 -1480 c567 -119 1179 -212 1745 -264 993 -93 2093 -74 2948 50 60 8
111 13 114 10 4 -3 -101 -250 -112 -264 -8 -9 -433 -62 -705 -86 -775 -71
-1676 -66 -2500 14 -492 48 -1116 142 -1526 230 l-51 11 -82 168 c-44 92 -81
171 -81 176 0 4 12 5 28 2 15 -4 115 -25 222 -47z m-11125 -4235 c90 -24 252
-107 323 -165 141 -115 251 -294 292 -474 20 -83 22 -115 17 -229 -6 -154 -22
-218 -82 -344 -151 -312 -468 -499 -815 -480 -128 7 -209 27 -318 78 -239 110
-403 307 -473 564 -18 65 -22 107 -22 220 0 122 3 151 27 228 96 318 339 546
656 613 85 18 312 11 395 -11z m11193 -156 l-3 -182 -135 -59 c-74 -33 -277
-115 -450 -184 -173 -69 -326 -131 -339 -137 -36 -17 -61 -66 -61 -115 0 -79
51 -132 129 -132 49 0 376 125 769 294 46 20 86 36 88 36 2 0 4 -238 4 -530
l0 -530 -860 0 -860 0 0 860 0 860 860 0 860 0 -2 -181z m6252 -679 l0 -860
-860 0 -860 0 0 450 c0 248 1 450 3 450 2 0 43 -14 93 -30 236 -81 464 -128
663 -137 115 -5 138 -4 166 11 83 45 89 179 9 231 -21 14 -60 20 -160 26 -201
12 -401 57 -659 146 l-110 38 -3 268 -2 267 860 0 860 0 0 -860z m9540 830
c273 -79 487 -285 582 -560 31 -92 32 -100 33 -260 0 -196 -11 -246 -85 -395
-276 -557 -1037 -640 -1435 -158 -67 81 -137 220 -166 328 -30 114 -31 317 0
430 86 322 332 557 657 629 100 22 314 15 414 -14z m-22870 -830 l0 -280
-1215 0 -1215 0 0 280 0 280 1215 0 1215 0 0 -280z m10560 0 l0 -280 -1215 0
-1215 0 0 280 0 280 1215 0 1215 0 0 -280z m10160 0 l0 -280 -1210 0 -1210 0
0 280 0 280 1210 0 1210 0 0 -280z m2853 -5858 c476 -101 856 -411 1038 -847
225 -538 87 -1176 -338 -1575 -195 -182 -420 -298 -694 -357 -81 -17 -636 -18
-14439 -18 l-14355 0 -104 23 c-433 97 -789 377 -975 767 -109 227 -154 472
-135 730 45 602 470 1107 1057 1256 62 16 155 33 205 38 52 5 6252 8 14362 7
l14270 -1 108 -23z m19 -3910 c570 -132 979 -544 1100 -1105 31 -146 31 -418
0 -564 -121 -563 -537 -980 -1105 -1105 l-102 -23 -14340 0 c-13728 0 -14344
1 -14428 18 -278 57 -519 181 -716 372 -221 213 -365 483 -416 780 -22 131
-22 348 0 480 87 513 459 943 955 1105 83 27 207 54 290 63 19 2 6477 3 14350
3 l14315 -1 97 -23z m-11 -6650 c202 -46 351 -109 504 -210 320 -211 542 -546
612 -926 26 -137 23 -399 -5 -533 -86 -403 -331 -745 -676 -943 -170 -97 -347
-157 -536 -179 -71 -9 -3695 -11 -14400 -9 l-14305 3 -90 22 c-384 92 -679
294 -887 607 -156 236 -231 491 -230 786 2 331 95 602 298 866 228 295 586
494 959 533 44 5 6510 8 14370 7 l14290 -1 96 -23z m14 -3908 c282 -67 515
-194 710 -389 197 -196 327 -437 387 -718 28 -135 31 -407 5 -540 -117 -586
-558 -1024 -1142 -1133 -97 -19 -461 -19 -14420 -19 -13815 0 -14323 1 -14410
18 -461 94 -828 377 -1024 788 -92 191 -132 374 -132 599 -1 173 18 302 67
450 159 480 558 837 1050 939 55 11 115 22 134 24 19 2 6481 3 14360 3 l14325
-1 90 -21z"/>
<path d="M36151 25997 c-13 -6 -34 -25 -45 -40 -21 -28 -21 -35 -24 -775 -2
-709 -1 -749 16 -781 34 -63 119 -89 183 -56 32 17 69 69 69 98 0 15 15 17
165 17 l165 0 0 -24 c0 -49 69 -106 130 -106 56 0 98 28 122 81 l23 49 156 0
157 0 6 -26 c23 -89 126 -132 203 -84 32 19 63 66 63 95 0 13 23 15 164 15
l164 0 6 -33 c10 -53 68 -97 126 -97 58 0 101 29 124 82 l20 48 2178 0 2178 0
0 710 0 710 -2178 0 -2178 0 -14 42 c-20 57 -67 88 -133 88 -44 0 -53 -4 -88
-39 -25 -25 -39 -48 -39 -65 l0 -26 -165 0 -165 0 0 26 c0 17 -14 40 -39 65
-35 35 -44 39 -88 39 -66 0 -113 -31 -133 -88 l-14 -42 -156 0 -156 0 -14 42
c-37 104 -188 121 -244 28 -9 -16 -16 -38 -16 -49 0 -20 -4 -21 -164 -21
l-164 0 -6 34 c-4 22 -20 46 -42 65 -28 25 -43 31 -82 31 -26 0 -58 -6 -71
-13z"/>
<path d="M20940 25170 l0 -710 5265 0 5265 0 0 710 0 710 -5265 0 -5265 0 0
-710z"/>
<path d="M43210 25170 l0 -710 710 0 710 0 0 710 0 710 -710 0 -710 0 0 -710z"/>
<path d="M45510 25170 l0 -710 715 0 715 0 0 710 0 710 -715 0 -715 0 0 -710z"/>
<path d="M47820 25170 l0 -710 710 0 710 0 0 710 0 710 -710 0 -710 0 0 -710z"/>
<path d="M36161 22093 c-19 -10 -44 -31 -55 -46 -21 -28 -21 -38 -24 -776 l-2
-747 22 -35 c32 -47 87 -73 138 -64 49 8 98 52 106 94 l7 31 162 0 163 0 6
-31 c3 -17 19 -44 36 -59 72 -67 190 -37 220 56 l12 34 2774 0 2774 0 0 715 0
715 -2774 0 -2774 0 -12 35 c-41 125 -232 120 -257 -7 l-5 -28 -164 0 c-141 0
-164 2 -164 15 0 26 -27 71 -54 88 -40 27 -96 31 -135 10z"/>
<path d="M20940 21265 l0 -715 5265 0 5265 0 0 715 0 715 -5265 0 -5265 0 0
-715z"/>
<path d="M43210 21265 l0 -715 710 0 710 0 0 715 0 715 -710 0 -710 0 0 -715z"/>
<path d="M45510 21265 l0 -715 715 0 715 0 0 715 0 715 -715 0 -715 0 0 -715z"/>
<path d="M47820 21265 l0 -715 710 0 710 0 0 715 0 715 -710 0 -710 0 0 -715z"/>
<path d="M36135 15428 c-56 -44 -55 -25 -55 -820 0 -691 1 -735 18 -767 34
-63 107 -86 177 -57 35 15 75 67 75 99 0 15 14 17 164 17 l164 0 6 -34 c12
-63 94 -108 163 -91 38 9 80 51 94 92 l11 33 158 0 158 0 7 -29 c9 -40 60 -89
102 -97 73 -14 147 31 160 98 l6 28 163 0 c150 0 164 -2 164 -17 0 -33 40 -84
77 -100 76 -31 158 6 184 84 l11 33 2179 0 2179 0 0 710 0 710 -2178 0 -2179
0 -12 39 c-17 60 -61 91 -124 91 -29 -1 -62 -6 -75 -14 -30 -16 -62 -65 -62
-93 0 -23 -1 -23 -165 -23 -161 0 -165 1 -165 21 0 30 -28 74 -60 93 -16 9
-50 16 -78 16 -62 0 -106 -32 -123 -91 l-12 -39 -157 0 -157 0 -12 39 c-17 59
-61 91 -122 91 -28 0 -63 -7 -79 -15 -32 -16 -60 -61 -60 -95 0 -19 -5 -20
-165 -20 -161 0 -165 1 -165 21 0 30 -28 74 -60 93 -41 24 -121 21 -155 -6z"/>
<path d="M20940 14610 l0 -710 5265 0 5265 0 0 710 0 710 -5265 0 -5265 0 0
-710z"/>
<path d="M43210 14610 l0 -710 710 0 710 0 0 710 0 710 -710 0 -710 0 0 -710z"/>
<path d="M45510 14610 l0 -710 715 0 715 0 0 710 0 710 -715 0 -715 0 0 -710z"/>
<path d="M47820 14610 l0 -710 710 0 710 0 0 710 0 710 -710 0 -710 0 0 -710z"/>
<path d="M36170 11543 c-23 -9 -60 -45 -76 -75 -21 -40 -21 -1486 0 -1526 44
-85 153 -102 220 -35 15 15 30 40 33 55 l6 28 162 0 163 0 6 -30 c8 -41 45
-76 93 -89 71 -19 141 17 163 85 l12 34 158 0 158 0 12 -34 c22 -67 94 -104
167 -84 42 11 82 52 90 90 l6 28 162 0 163 0 6 -30 c8 -41 45 -76 93 -89 71
-19 141 17 163 85 l12 34 2179 0 2179 0 0 715 0 715 -2179 0 -2179 0 -12 35
c-41 125 -232 120 -257 -7 l-5 -28 -164 0 c-150 0 -164 2 -164 18 0 32 -40 83
-77 99 -76 31 -158 -6 -184 -84 l-11 -33 -158 0 -158 0 -12 35 c-41 125 -232
120 -257 -7 l-5 -28 -164 0 c-150 0 -164 2 -164 18 0 31 -40 83 -75 98 -35 14
-77 17 -105 7z"/>
<path d="M20940 10705 l0 -715 5265 0 5265 0 0 715 0 715 -5265 0 -5265 0 0
-715z"/>
<path d="M43210 10705 l0 -715 710 0 710 0 0 715 0 715 -710 0 -710 0 0 -715z"/>
<path d="M45510 10705 l0 -715 715 0 715 0 0 715 0 715 -715 0 -715 0 0 -715z"/>
<path d="M47820 10705 l0 -715 710 0 710 0 0 715 0 715 -710 0 -710 0 0 -715z"/>
<path d="M58393 69395 c-154 -28 -307 -99 -425 -198 -164 -137 -2898 -2643
-2958 -2711 -162 -182 -239 -404 -227 -651 7 -136 34 -243 92 -360 117 -239
333 -414 593 -481 179 -47 391 -33 567 35 148 57 194 95 911 751 l689 630 5
-4323 5 -4322 23 -79 c47 -161 115 -279 226 -395 121 -124 239 -197 403 -248
81 -25 102 -27 258 -27 156 0 177 2 258 27 313 96 540 329 630 646 l22 76 5
4323 5 4322 684 -625 c376 -344 714 -646 751 -670 152 -101 309 -147 505 -147
107 0 148 5 228 26 351 91 611 371 673 728 20 116 14 280 -16 393 -24 95 -93
237 -152 318 -27 37 -586 555 -1508 1399 -806 738 -1489 1360 -1518 1383 -199
157 -477 226 -729 180z"/>
<path d="M68848 69400 c-338 -61 -615 -302 -716 -620 -11 -36 -24 -76 -28 -90
-5 -14 -11 -1973 -14 -4354 l-5 -4330 -665 609 c-366 334 -690 628 -720 652
-71 56 -183 114 -290 149 -80 26 -96 28 -260 29 -154 0 -185 -3 -255 -23 -343
-99 -599 -387 -656 -736 -16 -103 -7 -289 20 -391 27 -101 86 -220 153 -310
38 -50 455 -438 1493 -1388 792 -726 1476 -1348 1520 -1383 98 -79 202 -134
320 -170 82 -25 105 -28 250 -28 124 -1 175 3 225 17 116 32 197 67 284 125
100 67 2952 2667 3053 2785 235 271 287 663 133 986 -106 222 -294 392 -519
472 -118 41 -201 52 -352 46 -203 -8 -360 -62 -509 -177 -36 -27 -362 -322
-725 -654 l-660 -605 -5 4317 -5 4317 -22 78 c-26 91 -87 226 -133 292 -121
175 -309 307 -525 368 -78 21 -306 32 -387 17z"/>
<path d="M82555 68564 c-16 -2 -73 -9 -125 -15 -327 -37 -556 -116 -1135 -392
-389 -185 -518 -206 -895 -147 -326 51 -423 61 -625 67 -225 6 -349 -3 -514
-39 -470 -100 -889 -407 -1145 -838 -31 -52 -56 -104 -56 -115 0 -11 -20 -72
-45 -135 -102 -256 -144 -474 -152 -787 -7 -283 15 -504 77 -760 12 -53 18
-98 14 -125 -5 -37 2 -60 46 -163 252 -580 476 -848 722 -862 61 -4 107 3 273
41 494 112 867 159 1255 159 236 0 363 -12 546 -48 335 -67 564 -188 759 -399
108 -117 178 -173 287 -231 183 -96 349 -129 648 -128 238 0 320 8 775 78 160
24 344 49 409 55 269 24 413 -28 466 -168 42 -110 53 -201 53 -457 0 -277 -15
-477 -108 -1432 -4 -35 -3 -63 1 -63 24 0 1089 60 1131 64 l53 5 6 -48 c6 -45
8 -48 58 -70 33 -16 79 -52 131 -105 67 -67 90 -99 133 -186 150 -302 159
-697 25 -1035 -97 -245 -319 -532 -543 -702 -164 -124 -384 -213 -526 -213
l-62 0 -4 -82 c-6 -116 8 -383 26 -504 20 -132 36 -204 45 -204 21 0 692 849
1043 1320 985 1324 1566 2325 1709 2945 21 92 23 120 21 355 -2 300 -17 687
-37 995 -62 922 -199 1520 -425 1858 -32 49 -89 111 -153 169 -290 264 -380
387 -647 883 -137 254 -197 344 -299 446 -70 70 -102 94 -171 127 -104 51
-251 87 -413 103 -146 14 -472 6 -629 -15 l-108 -15 -96 95 c-395 389 -891
646 -1372 709 -100 13 -345 18 -427 9z"/>
<path d="M47245 66051 c-263 -69 -459 -229 -570 -466 -57 -119 -75 -197 -82
-335 -4 -92 -1 -135 16 -214 59 -287 265 -526 542 -630 l66 -25 6 272 c11 441
46 799 123 1237 14 80 27 153 30 163 7 23 -37 22 -131 -2z"/>
<path d="M30920 65210 l0 -540 2865 0 2865 0 0 540 0 540 -2865 0 -2865 0 0
-540z"/>
<path d="M37670 65734 c-160 -43 -302 -178 -362 -345 -18 -53 -22 -84 -22
-179 0 -101 4 -124 27 -184 84 -214 275 -348 502 -350 100 0 171 16 260 63
287 148 373 525 182 793 -69 97 -168 167 -286 202 -69 20 -226 20 -301 0z"/>
<path d="M39437 65735 c-76 -21 -152 -64 -216 -122 -118 -106 -174 -235 -174
-398 1 -120 24 -203 82 -291 107 -164 259 -246 456 -247 163 0 292 56 398 174
96 106 137 214 137 365 0 247 -150 447 -389 518 -66 19 -225 20 -294 1z"/>
<path d="M41180 65727 c-230 -78 -370 -273 -370 -514 0 -151 52 -275 160 -383
258 -258 699 -184 861 145 75 152 76 315 4 471 -63 138 -212 260 -355 293 -81
19 -228 13 -300 -12z"/>
<path d="M42961 65734 c-135 -36 -267 -147 -331 -278 -198 -400 138 -849 577
-772 301 53 495 344 432 648 -38 186 -190 347 -378 402 -68 20 -226 20 -300 0z"/>
<path d="M79210 63270 c-205 -19 -411 -65 -501 -111 -98 -50 -149 -128 -134
-206 30 -162 405 -254 920 -224 461 27 645 101 645 257 0 122 -125 215 -355
266 -105 23 -418 32 -575 18z"/>
<path d="M81817 62916 c-95 -26 -143 -86 -132 -166 20 -161 303 -358 750 -523
349 -129 556 -154 652 -81 99 75 78 215 -50 345 -110 111 -279 208 -517 297
-318 119 -567 164 -703 128z"/>
<path d="M80643 62338 c-93 -310 -136 -465 -128 -470 6 -3 37 -8 69 -10 l58
-3 134 444 c74 244 134 450 134 457 0 11 -88 44 -117 44 -6 0 -73 -208 -150
-462z"/>
<path d="M79255 62206 c-118 -73 -184 -314 -141 -508 51 -229 225 -266 333
-72 48 87 66 182 61 323 -3 103 -7 124 -32 174 -33 68 -73 99 -135 104 -36 3
-55 -1 -86 -21z"/>
<path d="M81515 61884 c-93 -48 -153 -170 -171 -345 -13 -135 40 -305 110
-348 108 -67 230 28 282 220 24 91 22 245 -4 327 -42 132 -130 191 -217 146z"/>
<path d="M80319 61260 c-120 -399 -143 -488 -147 -556 -11 -201 84 -297 347
-350 64 -13 131 -24 149 -24 61 0 93 63 55 109 -14 16 -40 25 -109 36 -244 39
-330 106 -309 239 5 30 234 807 290 987 4 12 -8 17 -64 25 l-69 9 -143 -475z"/>
<path d="M84450 61544 c-206 -12 -376 -23 -376 -23 -1 -1 -4 -58 -8 -128 -12
-216 15 -414 62 -466 18 -20 151 -101 156 -95 2 1 36 55 75 118 158 249 369
495 501 583 l55 37 -45 -1 c-25 -1 -214 -12 -420 -25z"/>
<path d="M79842 59773 c-23 -9 -34 -54 -22 -84 14 -32 111 -113 197 -163 249
-146 646 -196 912 -114 85 26 179 76 198 105 26 40 -4 103 -50 103 -12 0 -58
-18 -102 -40 -199 -100 -527 -92 -790 17 -68 28 -208 118 -244 157 -24 25 -65
33 -99 19z"/>
<path d="M81350 54233 c0 -17 -50 -347 -75 -493 -51 -303 -212 -1120 -251
-1277 l-6 -23 -4180 0 -4180 0 6 -22 c40 -159 2739 -9282 2749 -9292 7 -7 37
-94 66 -192 l53 -179 526 3 c846 6 1369 -29 1628 -109 143 -44 184 -80 184
-161 0 -82 -44 -149 -140 -213 -145 -96 -377 -171 -716 -229 l-139 -24 280 -1
c674 -2 1044 -76 1121 -223 47 -90 -28 -203 -180 -274 -189 -87 -548 -156
-946 -182 l-115 -7 215 -13 c751 -44 1135 -144 1175 -305 11 -42 -20 -111 -66
-151 -140 -119 -487 -218 -959 -271 -203 -23 -212 -28 -70 -36 538 -33 676
-67 719 -182 23 -59 5 -131 -45 -187 -100 -111 -454 -221 -904 -280 -119 -16
-245 -24 -451 -29 l-287 -6 502 -1702 501 -1703 1193 0 1194 0 -6 -82 c-8
-100 -48 -888 -76 -1483 -69 -1488 -117 -2837 -150 -4210 -44 -1846 -44 -3908
1 -5094 7 -187 7 -445 -1 -820 -18 -983 -33 -1931 -61 -4001 -5 -415 -13
-1736 -16 -2935 -5 -2109 2 -3118 27 -3785 5 -129 8 -235 7 -236 -1 -1 -78 6
-172 17 -542 60 -1279 107 -2190 140 -219 8 -3475 30 -3492 23 -2 0 58 -1851
132 -4113 74 -2262 135 -4126 135 -4142 0 -28 1 -29 51 -29 134 0 998 73 1499
126 1620 172 3339 490 4870 902 l105 28 8 54 c4 30 233 2670 508 5865 274
3196 512 5927 528 6070 l30 260 5 1330 c12 2732 29 4140 60 4895 47 1145 81
2848 126 6335 29 2234 49 3451 70 4305 6 212 10 429 10 482 l0 98 3369 2 3368
3 -858 2910 c-472 1601 -859 2913 -859 2917 0 4 649 638 1443 1409 793 771
1468 1427 1500 1459 l58 57 -285 294 c-157 162 -290 294 -294 294 -5 0 -611
-586 -1348 -1302 -1068 -1039 -1341 -1299 -1347 -1285 -4 9 -615 2078 -1357
4597 -743 2519 -1353 4588 -1356 4598 -5 16 -41 17 -573 17 l-568 0 -6 113
c-20 341 5 1097 49 1520 9 82 14 150 12 151 -1 2 -178 -36 -393 -84 l-389 -88
-75 30 c-60 23 -482 158 -497 158 -2 0 -4 -3 -4 -7z"/>
<path d="M90020 13309 c-147 -40 -558 -131 -785 -173 -816 -152 -1619 -245
-2570 -298 -308 -17 -1507 -17 -1785 0 -942 58 -1661 160 -2358 333 -112 28
-205 49 -208 47 -2 -3 116 -1280 263 -2839 l267 -2835 181 67 c2229 826 4314
1887 6300 3205 331 220 721 487 749 514 18 18 20 66 42 997 13 538 23 986 24
996 0 9 -3 16 -7 16 -5 -1 -55 -14 -113 -30z"/>
</g>
</svg>
